<svg xmlns="http://www.w3.org/2000/svg" viewBox="0 0 32 32" width="64" height="64" fill="none" role="img" aria-label="USDC">
  <circle cx="16" cy="16" r="16" fill="#2775CA"/>
  <path d="M16 7C11 7 7 11 7 16S11 25 16 25 25 21 25 16 21 7 16 7ZM17 21.5V23H15V21.5C13 21 11.5 19.8 11.5 18C11.5 17.5 11.8 17 12.3 17H13.7C14 17 14.2 17.2 14.3 17.5C14.5 18.5 15.1 19 16 19C17.1 19 17.8 18.4 17.8 17.5C17.8 16.7 17.3 16.3 15.7 15.8C13.5 15.1 12 14.2 12 12.3C12 10.7 13.2 9.5 15 9.2V7.5H17V9.2C18.8 9.6 20 10.8 20 12.5C20 13 19.7 13.5 19.2 13.5H17.8C17.5 13.5 17.2 13.3 17.1 13C16.9 12.1 16.4 11.5 15.5 11.5C14.5 11.5 13.8 12.1 13.8 12.9C13.8 13.7 14.3 14.1 16 14.6C18.3 15.3 20 16.1 20 18.1C20 19.8 18.8 21 17 21.5Z" fill="white"/>
</svg>
