<svg xmlns="http://www.w3.org/2000/svg" width="64" height="64" viewBox="0 0 64 64" role="img" aria-label="USDC">
  <circle cx="32" cy="32" r="32" fill="#2775CA"/>
  <path fill="#fff" d="M32 14.5c-9.66 0-17.5 7.84-17.5 17.5S22.34 49.5 32 49.5 49.5 41.66 49.5 32 41.66 14.5 32 14.5zm-2.2 27.9c-5-.7-8.7-5-8.7-10.4s3.7-9.7 8.7-10.4v2.6c-3.6.7-6.2 3.9-6.2 7.8s2.6 7.1 6.2 7.8v2.6zm3.2-3.3c0 .5-.4.9-.9.9h-.2c-.5 0-.9-.4-.9-.9v-1.5c-2-.3-3-1.4-3.3-2.9-.1-.3.2-.6.5-.6h.9c.3 0 .5.2.6.5.2.8.7 1.4 2.1 1.4 1.1 0 1.8-.6 1.8-1.4 0-.8-.4-1.1-1.9-1.4-2.2-.3-4-1-4-2.9 0-1.5 1.1-2.6 3-2.9V29c0-.5.4-.9.9-.9h.2c.5 0 .9.4.9.9v1.4c1.5.3 2.5 1.1 2.9 2.5.1.3-.2.6-.5.6h-.8c-.3 0-.5-.2-.6-.4-.3-.8-.8-1.2-1.8-1.2-1.1 0-1.7.5-1.7 1.3 0 .7.4 1 1.9 1.3 2.3.3 4 1 4 3 0 1.5-1.1 2.7-3 3v1.6zm4.9-2.7v-2.6c3.6-.7 6.2-3.9 6.2-7.8s-2.6-7.1-6.2-7.8v-2.6c5 .7 8.7 5 8.7 10.4s-3.7 9.7-8.7 10.4z"/>
</svg>
