<svg xmlns="http://www.w3.org/2000/svg" width="64" height="64" viewBox="0 0 64 64" role="img" aria-label="USDT">
  <circle cx="32" cy="32" r="32" fill="#26A17B"/>
  <path fill="#fff" d="M35.7 28.6v-4.2h9.6v-6.4H18.7v6.4h9.6v4.2c-7.8.4-13.7 1.9-13.7 3.8 0 1.9 5.9 3.4 13.7 3.8v13.4h7.4V32.2c7.8-.4 13.7-1.9 13.7-3.8 0-1.9-5.9-3.4-13.7-3.8m0 6.5c-.2 0-1.2.1-3.4.1-1.8 0-3-.1-3.5-.1-7-.3-12.2-1.5-12.2-2.9s5.2-2.6 12.2-2.9v4.6c.5 0 1.8.1 3.5.1 2.2 0 3.2-.1 3.4-.1v-4.6c7 .3 12.2 1.5 12.2 2.9s-5.2 2.6-12.2 2.9"/>
</svg>
