<?xml version="1.0" encoding="utf-8"?>
<!-- Generator: Adobe Illustrator 26.2.1, SVG Export Plug-In . SVG Version: 6.00 Build 0)  -->
<svg version="1.1" id="图层_1" xmlns="http://www.w3.org/2000/svg" xmlns:xlink="http://www.w3.org/1999/xlink" x="0px" y="0px"
	 viewBox="0 0 390.12 383.13" style="enable-background:new 0 0 390.12 383.13;" xml:space="preserve">
<style type="text/css">
	.st0{fill:#FFDA00;}
</style>
<path d="M327.66,367.55H62.91c-23.88,0-43.24-19.36-43.24-43.24V59.55c0-23.88,19.36-43.24,43.24-43.24h264.76
	c23.88,0,43.24,19.36,43.24,43.24v264.76C370.9,348.19,351.55,367.55,327.66,367.55z"/>
<g>
	<polygon class="st0" points="227.9,120.01 227.9,76.52 184.42,76.52 140.93,76.52 140.93,120.01 184.42,120.01 	"/>
	<polygon class="st0" points="140.93,250.47 140.93,293.95 184.42,293.95 227.9,293.95 227.9,250.47 184.42,250.47 	"/>
	<polygon class="st0" points="271.39,163.49 271.39,120.01 227.9,120.01 227.9,163.49 227.9,206.98 227.9,250.47 271.39,250.47 
		271.39,206.98 	"/>
	<rect x="271.39" y="250.47" class="st0" width="43.49" height="43.49"/>
	<polygon class="st0" points="140.93,163.49 140.93,120.01 97.44,120.01 97.44,163.49 97.44,206.98 97.44,250.47 140.93,250.47 
		140.93,206.98 	"/>
</g>
</svg>
